<?xml version="1.0" encoding="UTF-8" standalone="no"?>
<!-- Created with Inkscape (http://www.inkscape.org/) -->

<svg
   xmlns:dc="http://purl.org/dc/elements/1.1/"
   xmlns:cc="http://creativecommons.org/ns#"
   xmlns:rdf="http://www.w3.org/1999/02/22-rdf-syntax-ns#"
   xmlns:svg="http://www.w3.org/2000/svg"
   xmlns="http://www.w3.org/2000/svg"
   xmlns:sodipodi="http://sodipodi.sourceforge.net/DTD/sodipodi-0.dtd"
   xmlns:inkscape="http://www.inkscape.org/namespaces/inkscape"
   width="83.779999"
   height="35.07"
   id="svg3750"
   version="1.1"
   inkscape:version="0.48.1 "
   sodipodi:docname="Neues Dokument 5">
  <defs
     id="defs3752">
    <clipPath
       clipPathUnits="userSpaceOnUse"
       id="clipPath66">
      <path
         inkscape:connector-curvature="0"
         d="m 145.701,267.46 65.42,0 0,26.457 -65.42,0 0,-26.457 z"
         id="path68" />
    </clipPath>
  </defs>
  <sodipodi:namedview
     id="base"
     pagecolor="#ffffff"
     bordercolor="#666666"
     borderopacity="1.0"
     inkscape:pageopacity="0.0"
     inkscape:pageshadow="2"
     inkscape:zoom="9.463299"
     inkscape:cx="44.372379"
     inkscape:cy="16.460721"
     inkscape:document-units="px"
     inkscape:current-layer="layer1"
     showgrid="false"
     fit-margin-top="0"
     fit-margin-left="0"
     fit-margin-right="0"
     fit-margin-bottom="0"
     inkscape:window-width="1024"
     inkscape:window-height="708"
     inkscape:window-x="-4"
     inkscape:window-y="-4"
     inkscape:window-maximized="1" />
  <metadata
     id="metadata3755">
    <rdf:RDF>
      <cc:Work
         rdf:about="">
        <dc:format>image/svg+xml</dc:format>
        <dc:type
           rdf:resource="http://purl.org/dc/dcmitype/StillImage" />
        <dc:title></dc:title>
      </cc:Work>
    </rdf:RDF>
  </metadata>
  <g
     inkscape:label="Ebene 1"
     inkscape:groupmode="layer"
     id="layer1"
     transform="translate(-190.99396,-441.24184)">
    <path
       inkscape:connector-curvature="0"
       d="m 191.99646,475.31246 81.775,0 0,-33.07125 -81.775,0 0,33.07125 z"
       style="fill:#ffffff;fill-opacity:1;fill-rule:nonzero;stroke:none"
       id="path44" />
    <path
       inkscape:connector-curvature="0"
       d="m 269.21271,445.43871 -23.45,0 0,21.185 23.45,0 0,-21.185 z"
       style="fill:#ffffff;fill-opacity:1;fill-rule:nonzero;stroke:none"
       id="path46" />
    <g
       id="g48"
       transform="matrix(1.25,0,0,-1.25,234.78946,444.99796)">
      <path
         inkscape:connector-curvature="0"
         d="m 0,0 28.037,0 0,-17.771 -19.675,0 0,17.009 L 0,-0.762 0,0 z m -3.852,-0.762 -26.248,0 0,-6.839 -0.761,0 0,7.601 27.009,0 0,-0.762 z m -26.248,-17.009 -0.762,0 0,7.86 0.762,0 0,-7.86 z m 57.376,17.009 -18.152,0 0,-16.248 18.152,0 0,16.248 z"
         style="fill:#000000;fill-opacity:1;fill-rule:nonzero;stroke:none"
         id="path50" />
    </g>
    <path
       inkscape:connector-curvature="0"
       d="m 270.78771,444.04621 -7.29875,0 0,7.29875 7.29875,0 0,-7.29875 z"
       style="fill:#e20036;fill-opacity:1;fill-rule:nonzero;stroke:none"
       id="path52" />
    <path
       inkscape:connector-curvature="0"
       d="m 264.44021,445.85121 7.29875,0 0,-0.755 -7.29875,0 0,0.755 z"
       style="fill:#000000;fill-opacity:1;fill-rule:nonzero;stroke:none"
       id="path54" />
    <path
       inkscape:connector-curvature="0"
       d="m 264.44021,447.33246 7.29875,0 0,-0.75625 -7.29875,0 0,0.75625 z"
       style="fill:#000000;fill-opacity:1;fill-rule:nonzero;stroke:none"
       id="path56" />
    <path
       inkscape:connector-curvature="0"
       d="m 264.44021,448.81371 7.29875,0 0,-0.75625 -7.29875,0 0,0.75625 z"
       style="fill:#000000;fill-opacity:1;fill-rule:nonzero;stroke:none"
       id="path58" />
    <path
       inkscape:connector-curvature="0"
       d="m 264.44021,450.29621 7.29875,0 0,-0.75625 -7.29875,0 0,0.75625 z"
       style="fill:#000000;fill-opacity:1;fill-rule:nonzero;stroke:none"
       id="path60" />
    <g
       transform="matrix(1.25,0,0,-1.25,9.8702143,809.63871)"
       id="g62">
      <g
         id="g64"
         clip-path="url(#clipPath66)">
        <g
           id="g70"
           transform="translate(157.8253,281.815)">
          <path
             inkscape:connector-curvature="0"
             d="m 0,0 c -0.312,0.284 -0.696,0.483 -1.136,0.483 -0.766,0 -1.263,-0.327 -1.263,-1.619 l 0,-4.031 -1.959,0 0,7.452 1.959,0 0,-0.496 c 0.341,0.354 0.838,0.653 1.533,0.653 0.639,0 1.121,-0.256 1.377,-0.526 L 0,0 z"
             style="fill:#ffffff;fill-opacity:1;fill-rule:nonzero;stroke:none"
             id="path72" />
        </g>
        <g
           id="g74"
           transform="translate(157.8253,281.815)">
          <path
             inkscape:connector-curvature="0"
             d="m 0,0 c -0.312,0.284 -0.696,0.483 -1.136,0.483 -0.766,0 -1.263,-0.327 -1.263,-1.619 l 0,-4.031 -1.959,0 0,7.452 1.959,0 0,-0.496 c 0.341,0.354 0.838,0.653 1.533,0.653 0.639,0 1.121,-0.256 1.377,-0.526 L 0,0 z"
             style="fill:none;stroke:#000000;stroke-width:0.228;stroke-linecap:butt;stroke-linejoin:miter;stroke-miterlimit:4;stroke-opacity:1;stroke-dasharray:none"
             id="path76" />
        </g>
        <g
           id="g78"
           transform="translate(163.4618,276.6481)">
          <path
             inkscape:connector-curvature="0"
             d="m 0,0 0,0.497 c -0.355,-0.369 -0.979,-0.653 -1.675,-0.653 -1.391,0 -2.782,0.851 -2.782,2.654 0,1.647 1.334,2.47 3.023,2.47 0.682,0 1.122,-0.142 1.434,-0.298 L 0,5.039 C 0,5.564 -0.355,5.99 -1.065,5.99 -1.959,5.99 -2.427,5.862 -3.109,5.493 l -0.752,1.363 c 0.866,0.497 1.59,0.752 2.796,0.752 1.803,0 3.024,-0.936 3.024,-2.611 L 1.959,0 0,0 z m 0,3.123 c -0.341,0.213 -0.667,0.312 -1.363,0.312 -0.738,0 -1.135,-0.341 -1.135,-0.937 0,-0.525 0.298,-0.993 1.135,-0.993 0.639,0 1.15,0.326 1.363,0.681 l 0,0.937 z"
             style="fill:#ffffff;fill-opacity:1;fill-rule:nonzero;stroke:none"
             id="path80" />
        </g>
        <g
           id="g82"
           transform="translate(163.4618,276.6481)">
          <path
             inkscape:connector-curvature="0"
             d="m 0,0 0,0.497 c -0.355,-0.369 -0.979,-0.653 -1.675,-0.653 -1.391,0 -2.782,0.851 -2.782,2.654 0,1.647 1.334,2.47 3.023,2.47 0.682,0 1.122,-0.142 1.434,-0.298 L 0,5.039 C 0,5.564 -0.355,5.99 -1.065,5.99 -1.959,5.99 -2.427,5.862 -3.109,5.493 l -0.752,1.363 c 0.866,0.497 1.59,0.752 2.796,0.752 1.803,0 3.024,-0.936 3.024,-2.611 L 1.959,0 0,0 z m 0,3.123 c -0.341,0.213 -0.667,0.312 -1.363,0.312 -0.738,0 -1.135,-0.341 -1.135,-0.937 0,-0.525 0.298,-0.993 1.135,-0.993 0.639,0 1.15,0.326 1.363,0.681 l 0,0.937 z"
             style="fill:none;stroke:#000000;stroke-width:0.228;stroke-linecap:butt;stroke-linejoin:miter;stroke-miterlimit:4;stroke-opacity:1;stroke-dasharray:none"
             id="path84" />
        </g>
        <g
           id="g86"
           transform="translate(171.5092,276.6481)">
          <path
             inkscape:connector-curvature="0"
             d="m 0,0 0,0.468 c -0.369,-0.326 -0.866,-0.624 -1.576,-0.624 -1.589,0 -2.895,1.192 -2.895,3.974 0,2.229 1.05,3.79 2.895,3.79 0.653,0 1.221,-0.255 1.576,-0.582 L 0,9.369 1.959,10.348 1.959,0 0,0 z m 0,5.124 c -0.298,0.412 -0.752,0.639 -1.32,0.639 -0.752,0 -1.164,-0.653 -1.164,-1.902 0,-1.533 0.511,-2.172 1.277,-2.172 0.611,0 0.923,0.256 1.207,0.625 l 0,2.81 z"
             style="fill:#ffffff;fill-opacity:1;fill-rule:nonzero;stroke:none"
             id="path88" />
        </g>
        <g
           id="g90"
           transform="translate(171.5092,276.6481)">
          <path
             inkscape:connector-curvature="0"
             d="m 0,0 0,0.468 c -0.369,-0.326 -0.866,-0.624 -1.576,-0.624 -1.589,0 -2.895,1.192 -2.895,3.974 0,2.229 1.05,3.79 2.895,3.79 0.653,0 1.221,-0.255 1.576,-0.582 L 0,9.369 1.959,10.348 1.959,0 0,0 z m 0,5.124 c -0.298,0.412 -0.752,0.639 -1.32,0.639 -0.752,0 -1.164,-0.653 -1.164,-1.902 0,-1.533 0.511,-2.172 1.277,-2.172 0.611,0 0.923,0.256 1.207,0.625 l 0,2.81 z"
             style="fill:none;stroke:#000000;stroke-width:0.228;stroke-linecap:butt;stroke-linejoin:miter;stroke-miterlimit:4;stroke-opacity:1;stroke-dasharray:none"
             id="path92" />
        </g>
        <g
           id="g94"
           transform="translate(176.6162,284.7107)">
          <path
             inkscape:connector-curvature="0"
             d="m 0,0 c -0.61,0 -1.121,0.511 -1.121,1.121 0,0.611 0.511,1.122 1.121,1.122 0.61,0 1.121,-0.511 1.121,-1.122 C 1.121,0.511 0.61,0 0,0 m -0.979,-0.61 1.959,0 0,-7.452 -1.959,0 0,7.452 z"
             style="fill:#ffffff;fill-opacity:1;fill-rule:nonzero;stroke:none"
             id="path96" />
        </g>
        <g
           id="g98"
           transform="translate(176.6162,284.7107)">
          <path
             inkscape:connector-curvature="0"
             d="m 0,0 c -0.61,0 -1.121,0.511 -1.121,1.121 0,0.611 0.511,1.122 1.121,1.122 0.61,0 1.121,-0.511 1.121,-1.122 C 1.121,0.511 0.61,0 0,0 z m -0.979,-0.61 1.959,0 0,-7.452 -1.959,0 0,7.452 z"
             style="fill:none;stroke:#000000;stroke-width:0.228;stroke-linecap:butt;stroke-linejoin:miter;stroke-miterlimit:4;stroke-opacity:1;stroke-dasharray:none"
             id="path100" />
        </g>
        <g
           id="g102"
           transform="translate(182.7199,276.492)">
          <path
             inkscape:connector-curvature="0"
             d="m 0,0 c -1.945,0 -3.364,1.59 -3.364,3.875 0,2.286 1.419,3.89 3.364,3.89 1.945,0 3.378,-1.604 3.378,-3.89 C 3.378,1.59 1.945,0 0,0 m 0,5.877 c -0.937,0 -1.377,-0.852 -1.377,-2.002 0,-1.15 0.44,-1.987 1.377,-1.987 0.937,0 1.391,0.951 1.391,1.987 0,1.136 -0.454,2.002 -1.391,2.002"
             style="fill:#ffffff;fill-opacity:1;fill-rule:nonzero;stroke:none"
             id="path104" />
        </g>
        <g
           id="g106"
           transform="translate(182.7199,276.492)">
          <path
             inkscape:connector-curvature="0"
             d="m 0,0 c -1.945,0 -3.364,1.59 -3.364,3.875 0,2.286 1.419,3.89 3.364,3.89 1.945,0 3.378,-1.604 3.378,-3.89 C 3.378,1.59 1.945,0 0,0 z m 0,5.877 c -0.937,0 -1.377,-0.852 -1.377,-2.002 0,-1.15 0.44,-1.987 1.377,-1.987 0.937,0 1.391,0.951 1.391,1.987 0,1.136 -0.454,2.002 -1.391,2.002 z"
             style="fill:none;stroke:#000000;stroke-width:0.228;stroke-linecap:butt;stroke-linejoin:miter;stroke-miterlimit:4;stroke-opacity:1;stroke-dasharray:none"
             id="path108" />
        </g>
        <path
           inkscape:connector-curvature="0"
           d="m 186.582,274.574 -0.254,0 0,-1.714 0.254,0 0,1.714 z"
           style="fill:#000000;fill-opacity:1;fill-rule:nonzero;stroke:none"
           id="path110" />
        <path
           inkscape:connector-curvature="0"
           d="m 184.536,274.574 -0.254,0 0,-1.714 0.254,0 0,1.714 z"
           style="fill:#000000;fill-opacity:1;fill-rule:nonzero;stroke:none"
           id="path112" />
        <path
           inkscape:connector-curvature="0"
           d="m 182.49,274.574 -0.254,0 0,-1.714 0.254,0 0,1.714 z"
           style="fill:#000000;fill-opacity:1;fill-rule:nonzero;stroke:none"
           id="path114" />
        <path
           inkscape:connector-curvature="0"
           d="m 180.444,274.574 -0.254,0 0,-1.714 0.254,0 0,1.714 z"
           style="fill:#000000;fill-opacity:1;fill-rule:nonzero;stroke:none"
           id="path116" />
        <path
           inkscape:connector-curvature="0"
           d="m 178.398,274.574 -0.254,0 0,-1.714 0.254,0 0,1.714 z"
           style="fill:#000000;fill-opacity:1;fill-rule:nonzero;stroke:none"
           id="path118" />
        <path
           inkscape:connector-curvature="0"
           d="m 176.352,274.574 -0.254,0 0,-1.714 0.254,0 0,1.714 z"
           style="fill:#000000;fill-opacity:1;fill-rule:nonzero;stroke:none"
           id="path120" />
        <path
           inkscape:connector-curvature="0"
           d="m 174.306,274.574 -0.254,0 0,-1.714 0.254,0 0,1.714 z"
           style="fill:#000000;fill-opacity:1;fill-rule:nonzero;stroke:none"
           id="path122" />
        <path
           inkscape:connector-curvature="0"
           d="m 172.26,274.574 -0.254,0 0,-1.714 0.254,0 0,1.714 z"
           style="fill:#000000;fill-opacity:1;fill-rule:nonzero;stroke:none"
           id="path124" />
        <path
           inkscape:connector-curvature="0"
           d="m 170.214,274.574 -0.254,0 0,-1.714 0.254,0 0,1.714 z"
           style="fill:#000000;fill-opacity:1;fill-rule:nonzero;stroke:none"
           id="path126" />
        <path
           inkscape:connector-curvature="0"
           d="m 166.122,274.574 -0.254,0 0,-1.714 0.254,0 0,1.714 z"
           style="fill:#000000;fill-opacity:1;fill-rule:nonzero;stroke:none"
           id="path128" />
        <path
           inkscape:connector-curvature="0"
           d="m 164.076,274.574 -0.254,0 0,-1.714 0.254,0 0,1.714 z"
           style="fill:#000000;fill-opacity:1;fill-rule:nonzero;stroke:none"
           id="path130" />
        <path
           inkscape:connector-curvature="0"
           d="m 162.03,274.574 -0.254,0 0,-1.714 0.254,0 0,1.714 z"
           style="fill:#000000;fill-opacity:1;fill-rule:nonzero;stroke:none"
           id="path132" />
        <path
           inkscape:connector-curvature="0"
           d="m 159.984,274.574 -0.254,0 0,-1.714 0.254,0 0,1.714 z"
           style="fill:#000000;fill-opacity:1;fill-rule:nonzero;stroke:none"
           id="path134" />
        <path
           inkscape:connector-curvature="0"
           d="m 157.938,274.574 -0.254,0 0,-1.714 0.254,0 0,1.714 z"
           style="fill:#000000;fill-opacity:1;fill-rule:nonzero;stroke:none"
           id="path136" />
        <path
           inkscape:connector-curvature="0"
           d="m 155.892,274.574 -0.254,0 0,-1.714 0.254,0 0,1.714 z"
           style="fill:#000000;fill-opacity:1;fill-rule:nonzero;stroke:none"
           id="path138" />
        <path
           inkscape:connector-curvature="0"
           d="m 153.846,274.574 -0.254,0 0,-1.714 0.254,0 0,1.714 z"
           style="fill:#000000;fill-opacity:1;fill-rule:nonzero;stroke:none"
           id="path140" />
        <path
           inkscape:connector-curvature="0"
           d="m 151.8,274.574 -0.254,0 0,-1.714 0.254,0 0,1.714 z"
           style="fill:#000000;fill-opacity:1;fill-rule:nonzero;stroke:none"
           id="path142" />
        <path
           inkscape:connector-curvature="0"
           d="m 168.167,274.574 -0.254,0 0,-3.618 0.254,0 0,3.618 z"
           style="fill:#000000;fill-opacity:1;fill-rule:nonzero;stroke:none"
           id="path144" />
        <g
           id="g146"
           transform="translate(168.4852,270.3995)">
          <path
             inkscape:connector-curvature="0"
             d="M 0,0 -0.042,0.056 -0.107,0 -0.167,-0.345 -0.122,-0.398 -0.06,-0.345 0,0 z"
             style="fill:#000000;fill-opacity:1;fill-rule:nonzero;stroke:none"
             id="path148" />
        </g>
        <g
           id="g150"
           transform="translate(168.5722,270.3725)">
          <path
             inkscape:connector-curvature="0"
             d="M 0,0 -0.062,0.013 -0.081,-0.099 0.003,-0.357 0.06,-0.369 0.092,-0.287 0,0 z"
             style="fill:#000000;fill-opacity:1;fill-rule:nonzero;stroke:none"
             id="path152" />
        </g>
        <g
           id="g154"
           transform="translate(169.0199,270.3995)">
          <path
             inkscape:connector-curvature="0"
             d="M 0,0 -0.046,0.056 -0.107,0 -0.167,-0.345 -0.124,-0.398 -0.06,-0.345 0,0 z"
             style="fill:#000000;fill-opacity:1;fill-rule:nonzero;stroke:none"
             id="path156" />
        </g>
        <g
           id="g158"
           transform="translate(168.4063,269.947)">
          <path
             inkscape:connector-curvature="0"
             d="M 0,0 -0.043,0.055 -0.107,0 -0.167,-0.343 -0.123,-0.402 -0.06,-0.343 0,0 z"
             style="fill:#000000;fill-opacity:1;fill-rule:nonzero;stroke:none"
             id="path160" />
        </g>
        <g
           id="g162"
           transform="translate(168.9396,269.947)">
          <path
             inkscape:connector-curvature="0"
             d="M 0,0 -0.044,0.055 -0.107,0 -0.167,-0.343 -0.125,-0.402 -0.06,-0.343 0,0 z"
             style="fill:#000000;fill-opacity:1;fill-rule:nonzero;stroke:none"
             id="path164" />
        </g>
        <g
           id="g166"
           transform="translate(168.6938,269.991)">
          <path
             inkscape:connector-curvature="0"
             d="M 0,0 -0.061,0.013 -0.093,-0.064 0.003,-0.356 0.059,-0.368 0.08,-0.25 0,0 z"
             style="fill:#000000;fill-opacity:1;fill-rule:nonzero;stroke:none"
             id="path168" />
        </g>
        <g
           id="g170"
           transform="translate(167.1975,269.9377)">
          <path
             inkscape:connector-curvature="0"
             d="M 0,0 -0.043,0.05 -0.11,-0.008 -0.167,-0.335 -0.12,-0.392 -0.06,-0.335 0,0 z"
             style="fill:#000000;fill-opacity:1;fill-rule:nonzero;stroke:none"
             id="path172" />
        </g>
        <g
           id="g174"
           transform="translate(167.5657,270.3405)">
          <path
             inkscape:connector-curvature="0"
             d="m 0,0 0.068,0.055 -0.049,0.052 -0.387,0 L -0.278,0 0,0 z"
             style="fill:#000000;fill-opacity:1;fill-rule:nonzero;stroke:none"
             id="path176" />
        </g>
        <g
           id="g178"
           transform="translate(167.2658,270.3285)">
          <path
             inkscape:connector-curvature="0"
             d="m 0,0 -0.088,0.106 -0.065,-0.363 0.047,-0.054 0.06,0.054 L 0,0 z"
             style="fill:#000000;fill-opacity:1;fill-rule:nonzero;stroke:none"
             id="path180" />
        </g>
        <g
           id="g182"
           transform="translate(167.2377,270.054)">
          <path
             inkscape:connector-curvature="0"
             d="m 0,0 -0.066,-0.055 0.047,-0.052 0.277,0 0.067,0.055 L 0.277,0 0,0 z"
             style="fill:#000000;fill-opacity:1;fill-rule:nonzero;stroke:none"
             id="path184" />
        </g>
        <g
           id="g186"
           transform="translate(167.7945,269.9377)">
          <path
             inkscape:connector-curvature="0"
             d="M 0,0 -0.043,0.05 -0.11,-0.008 -0.167,-0.335 -0.12,-0.392 -0.06,-0.335 0,0 z"
             style="fill:#000000;fill-opacity:1;fill-rule:nonzero;stroke:none"
             id="path188" />
        </g>
        <g
           id="g190"
           transform="translate(168.1627,270.3405)">
          <path
             inkscape:connector-curvature="0"
             d="m 0,0 0.068,0.055 -0.049,0.052 -0.387,0 L -0.278,0 0,0 z"
             style="fill:#000000;fill-opacity:1;fill-rule:nonzero;stroke:none"
             id="path192" />
        </g>
        <g
           id="g194"
           transform="translate(167.8628,270.3285)">
          <path
             inkscape:connector-curvature="0"
             d="m 0,0 -0.088,0.106 -0.065,-0.363 0.047,-0.054 0.06,0.054 L 0,0 z"
             style="fill:#000000;fill-opacity:1;fill-rule:nonzero;stroke:none"
             id="path196" />
        </g>
        <g
           id="g198"
           transform="translate(167.8347,270.054)">
          <path
             inkscape:connector-curvature="0"
             d="m 0,0 -0.066,-0.055 0.047,-0.052 0.277,0 0.067,0.055 L 0.277,0 0,0 z"
             style="fill:#000000;fill-opacity:1;fill-rule:nonzero;stroke:none"
             id="path200" />
        </g>
        <g
           id="g202"
           transform="translate(186.5391,272.2634)">
          <path
             inkscape:connector-curvature="0"
             d="M 0,0 -0.04,0.059 -0.107,0 -0.165,-0.328 -0.118,-0.38 -0.058,-0.328 0,0 z M 0.411,0 0.368,0.059 0.304,0 0.245,-0.328 0.292,-0.38 0.352,-0.328 0.411,0 z m -0.45,-0.343 -0.065,-0.053 0.045,-0.054 0.268,0 0.064,0.054 -0.044,0.053 -0.268,0 z m -0.043,-0.119 -0.041,0.052 -0.066,-0.054 -0.057,-0.331 0.045,-0.056 0.06,0.056 0.059,0.333 z m 0.41,-0.002 -0.043,0.049 -0.064,-0.053 -0.058,-0.327 0.046,-0.056 0.061,0.056 0.058,0.331 z"
             style="fill:#000000;fill-opacity:1;fill-rule:nonzero;stroke:none"
             id="path204" />
        </g>
        <g
           id="g206"
           transform="translate(187.3678,271.5286)">
          <path
             inkscape:connector-curvature="0"
             d="m 0,0 -0.371,0 -0.065,-0.054 0.046,-0.053 0.371,0 0.065,0.053 L 0,0 z"
             style="fill:#000000;fill-opacity:1;fill-rule:nonzero;stroke:none"
             id="path208" />
        </g>
        <g
           id="g210"
           transform="translate(187.507,272.3143)">
          <path
             inkscape:connector-curvature="0"
             d="m 0,0 -0.363,0 -0.064,-0.054 0.046,-0.053 0.362,0 0.063,0.053 L 0,0 z"
             style="fill:#000000;fill-opacity:1;fill-rule:nonzero;stroke:none"
             id="path212" />
        </g>
        <g
           id="g214"
           transform="translate(187.4843,272.1015)">
          <path
             inkscape:connector-curvature="0"
             d="m 0,0 0,0.082 -0.072,0 -0.17,-0.233 0.005,-0.086 0.079,0.02 L 0,0 z"
             style="fill:#000000;fill-opacity:1;fill-rule:nonzero;stroke:none"
             id="path216" />
        </g>
        <g
           id="g218"
           transform="translate(187.2527,271.7842)">
          <path
             inkscape:connector-curvature="0"
             d="m 0,0 -0.005,0.08 -0.083,-0.02 -0.165,-0.225 0.001,-0.069 0.081,0 L 0,0 z"
             style="fill:#000000;fill-opacity:1;fill-rule:nonzero;stroke:none"
             id="path220" />
        </g>
        <g
           id="g222"
           transform="translate(151.0578,271.8046)">
          <path
             inkscape:connector-curvature="0"
             d="M 0,0 -0.043,0.05 -0.11,-0.008 -0.167,-0.335 -0.12,-0.392 -0.06,-0.335 0,0 z"
             style="fill:#000000;fill-opacity:1;fill-rule:nonzero;stroke:none"
             id="path224" />
        </g>
        <g
           id="g226"
           transform="translate(151.4259,272.2075)">
          <path
             inkscape:connector-curvature="0"
             d="m 0,0 0.068,0.055 -0.049,0.052 -0.387,0 L -0.278,0 0,0 z"
             style="fill:#000000;fill-opacity:1;fill-rule:nonzero;stroke:none"
             id="path228" />
        </g>
        <g
           id="g230"
           transform="translate(151.1261,272.1955)">
          <path
             inkscape:connector-curvature="0"
             d="m 0,0 -0.088,0.106 -0.065,-0.363 0.047,-0.054 0.06,0.054 L 0,0 z"
             style="fill:#000000;fill-opacity:1;fill-rule:nonzero;stroke:none"
             id="path232" />
        </g>
        <g
           id="g234"
           transform="translate(151.0979,271.921)">
          <path
             inkscape:connector-curvature="0"
             d="m 0,0 -0.066,-0.055 0.047,-0.052 0.277,0 0.067,0.055 L 0.277,0 0,0 z"
             style="fill:#000000;fill-opacity:1;fill-rule:nonzero;stroke:none"
             id="path236" />
        </g>
        <g
           id="g238"
           transform="translate(152.1855,271.8143)">
          <path
             inkscape:connector-curvature="0"
             d="M 0,0 -0.044,0.055 -0.107,0 -0.168,-0.343 -0.125,-0.402 -0.06,-0.343 0,0 z"
             style="fill:#000000;fill-opacity:1;fill-rule:nonzero;stroke:none"
             id="path240" />
        </g>
        <g
           id="g242"
           transform="translate(151.7387,272.2675)">
          <path
             inkscape:connector-curvature="0"
             d="M 0,0 -0.042,0.056 -0.107,0 -0.168,-0.346 -0.122,-0.398 -0.06,-0.346 0,0 z"
             style="fill:#000000;fill-opacity:1;fill-rule:nonzero;stroke:none"
             id="path244" />
        </g>
        <g
           id="g246"
           transform="translate(152.266,272.2675)">
          <path
             inkscape:connector-curvature="0"
             d="M 0,0 -0.046,0.056 -0.107,0 -0.168,-0.346 -0.125,-0.398 -0.06,-0.346 0,0 z"
             style="fill:#000000;fill-opacity:1;fill-rule:nonzero;stroke:none"
             id="path248" />
        </g>
        <g
           id="g250"
           transform="translate(151.6596,271.8143)">
          <path
             inkscape:connector-curvature="0"
             d="M 0,0 -0.043,0.055 -0.107,0 -0.168,-0.343 -0.123,-0.402 -0.06,-0.343 0,0 z"
             style="fill:#000000;fill-opacity:1;fill-rule:nonzero;stroke:none"
             id="path252" />
        </g>
        <g
           id="g254"
           transform="translate(151.8471,271.853)">
          <path
             inkscape:connector-curvature="0"
             d="m 0,0 0.027,0.139 -0.059,0.268 -0.054,0 L -0.109,0.275 -0.047,0.004 0,0 z"
             style="fill:#000000;fill-opacity:1;fill-rule:nonzero;stroke:none"
             id="path256" />
        </g>
        <g
           id="g258"
           transform="translate(152.0807,272.2589)">
          <path
             inkscape:connector-curvature="0"
             d="M 0,0 -0.183,-0.262 -0.209,-0.41 -0.138,-0.378 0.03,-0.137 0.055,0 0,0 z"
             style="fill:#000000;fill-opacity:1;fill-rule:nonzero;stroke:none"
             id="path260" />
        </g>
        <g
           id="g262"
           transform="translate(186.1636,271.8143)">
          <path
             inkscape:connector-curvature="0"
             d="M 0,0 -0.044,0.055 -0.107,0 -0.168,-0.343 -0.125,-0.402 -0.06,-0.343 0,0 z"
             style="fill:#000000;fill-opacity:1;fill-rule:nonzero;stroke:none"
             id="path264" />
        </g>
        <g
           id="g266"
           transform="translate(185.7169,272.2675)">
          <path
             inkscape:connector-curvature="0"
             d="M 0,0 -0.042,0.056 -0.107,0 -0.168,-0.346 -0.122,-0.398 -0.06,-0.346 0,0 z"
             style="fill:#000000;fill-opacity:1;fill-rule:nonzero;stroke:none"
             id="path268" />
        </g>
        <g
           id="g270"
           transform="translate(186.2441,272.2675)">
          <path
             inkscape:connector-curvature="0"
             d="M 0,0 -0.046,0.056 -0.107,0 -0.168,-0.346 -0.125,-0.398 -0.06,-0.346 0,0 z"
             style="fill:#000000;fill-opacity:1;fill-rule:nonzero;stroke:none"
             id="path272" />
        </g>
        <g
           id="g274"
           transform="translate(185.6378,271.8143)">
          <path
             inkscape:connector-curvature="0"
             d="M 0,0 -0.043,0.055 -0.107,0 -0.168,-0.343 -0.123,-0.402 -0.06,-0.343 0,0 z"
             style="fill:#000000;fill-opacity:1;fill-rule:nonzero;stroke:none"
             id="path276" />
        </g>
        <g
           id="g278"
           transform="translate(185.8252,271.853)">
          <path
             inkscape:connector-curvature="0"
             d="m 0,0 0.027,0.139 -0.059,0.268 -0.054,0 L -0.109,0.275 -0.047,0.004 0,0 z"
             style="fill:#000000;fill-opacity:1;fill-rule:nonzero;stroke:none"
             id="path280" />
        </g>
        <g
           id="g282"
           transform="translate(186.0588,272.2589)">
          <path
             inkscape:connector-curvature="0"
             d="M 0,0 -0.183,-0.262 -0.209,-0.41 -0.138,-0.378 0.03,-0.137 0.055,0 0,0 z"
             style="fill:#000000;fill-opacity:1;fill-rule:nonzero;stroke:none"
             id="path284" />
        </g>
        <path
           inkscape:connector-curvature="0"
           d="m 149.838,283.336 -0.77,0 0,-0.77 0.77,0 0,0.77 z"
           style="fill:#000000;fill-opacity:1;fill-rule:nonzero;stroke:none"
           id="path286" />
        <path
           inkscape:connector-curvature="0"
           d="m 177.627,291.718 -0.77,0 0,-0.77 0.77,0 0,0.77 z"
           style="fill:#000000;fill-opacity:1;fill-rule:nonzero;stroke:none"
           id="path288" />
        <path
           inkscape:connector-curvature="0"
           d="m 179.168,291.718 -0.769,0 0,-0.77 0.769,0 0,0.77 z"
           style="fill:#000000;fill-opacity:1;fill-rule:nonzero;stroke:none"
           id="path290" />
        <path
           inkscape:connector-curvature="0"
           d="m 197.24,284.397 1.894,0 0,-1.78 -1.894,0 0,1.78 z"
           style="fill:#e20036;fill-opacity:1;fill-rule:nonzero;stroke:none"
           id="path292" />
        <g
           id="g294"
           transform="translate(202.786,284.3983)">
          <path
             inkscape:connector-curvature="0"
             d="m 0,0 -3.176,0 -0.508,0 -10e-4,-7.668 2.057,0 -0.001,5.966 1.356,0 c 0.28,0 0.454,-0.236 0.473,-0.438 0.022,-0.228 0.01,-0.362 0.011,-0.564 l 0,-4.964 2.038,0 10e-4,5.498 C 2.25,-1.197 1.623,0 0,0"
             style="fill:#000000;fill-opacity:1;fill-rule:nonzero;stroke:none"
             id="path296" />
        </g>
        <g
           id="g298"
           transform="translate(197.2618,285.0805)">
          <path
             inkscape:connector-curvature="0"
             d="m 0,0 c -0.014,1.069 0.025,0.88 1.116,0.902 l 0.368,0 0.004,1.812 -1.275,0 c -1.619,0 -2.252,-1.206 -2.252,-2.18 l -10e-4,-1.204 -1.841,0 10e-4,0.661 c -0.005,1.067 0.017,0.921 1.114,0.921 l 0.368,0 0.004,1.811 -1.274,0 c -1.617,0 -2.249,-1.206 -2.249,-2.179 l -0.001,-1.214 -0.912,0 0,-1.716 0.911,0 10e-4,-5.98 2.042,0.013 -0.006,5.967 1.84,0 10e-4,-5.965 L 0,-8.353 0,0 z"
             style="fill:#000000;fill-opacity:1;fill-rule:nonzero;stroke:none"
             id="path300" />
        </g>
      </g>
    </g>
  </g>
</svg>
